<svg width="44" height="31" viewBox="0 0 44 31" fill="none" xmlns="http://www.w3.org/2000/svg">
<path d="M14.3838 23.5629C10.2358 27.2431 5.43761 29.5109 0 30.3699H0.0121701C5.29878 30.3699 10.5841 30.3724 15.8707 30.365C16.2933 30.365 16.7159 30.3019 17.1373 30.261C20.1599 29.9751 22.9171 28.9241 25.466 27.2777C27.4036 26.0263 28.9356 24.3267 30.4798 22.637C33.1664 19.697 35.8675 16.7719 38.5699 13.8481C38.9279 13.4606 39.0412 13.0274 38.8646 12.5483C38.6807 12.0457 38.252 11.839 37.7527 11.844C35.121 11.8675 32.4856 11.8403 29.8575 11.9591C27.456 12.0668 25.298 12.9927 23.5333 14.6317C22.3703 15.7111 21.2377 16.8239 20.1112 17.9442C19.0249 19.0249 17.9447 20.1142 16.8511 21.1887C16.0364 21.9896 15.235 22.8066 14.3826 23.5641L14.3838 23.5629Z" fill="white"/>
<path d="M43.1532 0.00123698C42.9559 0.00123698 42.7598 0.00123698 42.5625 0.00123698C37.4732 0.00123698 32.3839 -0.00123801 27.2946 0.00618899C26.872 0.00618899 26.4494 0.06932 26.0281 0.11017C23.0054 0.396118 20.2482 1.44707 17.6993 3.09344C15.7617 4.34492 14.2297 6.04452 12.6855 7.73421C9.99903 10.6742 7.29783 13.5993 4.59548 16.5231C4.23744 16.9106 4.12417 17.3438 4.30075 17.8229C4.48465 18.3254 4.91333 18.5322 5.41264 18.5272C8.04433 18.5037 10.6797 18.5309 13.3078 18.4121C15.7094 18.3044 17.8674 17.3785 19.632 15.7395C20.795 14.6601 21.9276 13.5473 23.0541 12.427C23.2441 12.2376 23.4341 12.0482 23.6241 11.8588C24.5192 10.9651 25.413 10.0688 26.3142 9.18252C27.129 8.38162 27.9303 7.56463 28.7828 6.80705C32.9307 3.12686 37.729 0.859081 43.1666 0H43.1544L43.1532 0.00123698Z" fill="white"/>
</svg>
